# xmcd
#
# Track frame offsets:
#	183
#	13490
#	36015
#	51565
#	78215
#	96240
#	112490
#	124915
#	143315
#	168690
#	185790
#	204465
#	221315
#	254840
#	274990
#	303990
#
# Disc length: 4528 seconds
#
# Revision: 1
# Processed by: cddbd v1.5.2PL0 Copyright (c) Steve Scherf et al.
# Submitted via: audiograbber 1.83.01
#
DISCID=fa11ae10
DTITLE=Che and Ray - Boogie Party
DYEAR=1991
DGENRE=Boogie
TTITLE0=Let´s Boogie (-Woogie)
TTITLE1=Tricky Bass Boogie
TTITLE2=If You Need Me
TTITLE3=C-C-Ripper
TTITLE4=Blue Piano
TTITLE5=Piano Boog-A-Loo
TTITLE6=Rhytm  ´n´ Boogie
TTITLE7=Ain´t Gonna Let My Boogie Roll On You
TTITLE8=Pan Blues
TTITLE9=Glory Hallelujah
TTITLE10=Stagger Lee
TTITLE11=Startin´ 68
TTITLE12=Blow Out The Candle Blues
TTITLE13=Dust My Broom
TTITLE14=Boogie-Sneekers
TTITLE15=Boogie-Party
EXTD=
EXTT0=
EXTT1=
EXTT2=
EXTT3=
EXTT4=
EXTT5=
EXTT6=
EXTT7=
EXTT8=
EXTT9=
EXTT10=
EXTT11=
EXTT12=
EXTT13=
EXTT14=
EXTT15=
PLAYORDER=
